<svg viewBox="0 0 220 33" xmlns="http://www.w3.org/2000/svg">
  <g fill="#000" fill-rule="evenodd">
    <path d="M16.13037 6.105537h9.721855V.988153H.97792v5.117384h9.722224v26.305145h5.430226V6.105537M31.734068 18.763696c0-3.561627 2.159335-5.689917 5.24357-5.689917 3.171986 0 4.978837 2.04142 4.978837 5.603049v13.030344h5.33095V17.113186c0-5.342441-3.040174-8.8172-8.283374-8.8172-3.612961 0-5.771926 1.867683-7.269983 4.039407V0h-5.331321v31.707172h5.33132V18.763696M64.65764 18.718655H52.618697c.488292-3.640174 2.79872-6.170538 6.086108-6.170538 3.553558 0 5.597442 2.707934 5.952835 6.170538m5.330524 2.086441c0-6.792031-3.775679-12.651823-11.238935-12.651823-6.708046 0-11.461803 5.504653-11.461803 12.252292 0 7.280347 5.24205 12.207527 12.039317 12.207527 4.308768 0 7.374034-1.73093 9.595615-4.394471l-3.154488-2.796346c-1.865814 1.819714-3.731628 2.796346-6.35228 2.796346-3.465082 0-6.130531-2.13046-6.75247-5.948577h17.23657c.044423-.532708.088474-.976632.088474-1.464948M77.473178 9.405302c0-2.069798 1.829462-3.699213 4.966048-3.699213 2.787385 0 5.531578 1.100956 8.27577 3.170754l2.875235-4.095557C90.497203 2.271105 86.96932.905919 82.525977.905919c-6.054647 0-10.410142 3.611137-10.410142 8.983804 0 5.724973 3.658923 7.662656 10.14879 9.248033 5.662986 1.321148 6.882627 2.51018 6.882627 4.756131 0 2.378066-2.09118 3.919405-5.401634 3.919405-3.789233 0-6.70766-1.453262-9.626453-4.007481l-3.222971 3.875366c3.658923 3.30287 8.057977 4.931915 12.719114 4.931915 6.403116 0 10.889653-3.434614 10.889653-9.247664 0-5.152475-3.354013-7.486503-9.801053-9.07188-5.836488-1.409224-7.23073-2.466142-7.23073-4.888246"/>
    <path d="m116.29767 28.21862-3.253308-3.19625c-1.693503 1.731303-3.564895 2.929897-6.105149 2.929897-4.145 0-7.041407-3.37382-7.041407-7.591095 0-4.12849 2.852215-7.502309 6.774011-7.502309 2.718144 0 4.456213 1.198594 6.10515 2.929896l3.34244-3.595781c-2.183728-2.397188-4.946812-4.039705-9.403024-4.039705-7.041781 0-12.211422 5.593438-12.211422 12.296684 0 6.703247 5.16964 12.163135 12.166856 12.163135 4.58991 0 7.308428-1.819714 9.625853-4.394471M116.29767 5.435515h5.448177V.905919h-5.448177zM116.29767 31.707172h4.540148V9.059192h-4.540148zM139.115688 18.718655h-12.038943c.489039-3.640174 2.798721-6.170538 6.086108-6.170538 3.553931 0 5.597442 2.707934 5.952835 6.170538m5.330897 2.086441c0-6.792031-3.776052-12.651823-11.239308-12.651823-6.708046 0-11.46143 5.504653-11.46143 12.252292 0 7.280347 5.242049 12.207527 12.038944 12.207527 4.309142 0 7.374781-1.73093 9.595615-4.394471l-3.153741-2.796346c-1.865814 1.819714-3.731628 2.796346-6.353026 2.796346-3.465083 0-6.130532-2.13046-6.75247-5.948577h17.236568c.044424-.532708.088848-.976632.088848-1.464948M150.68566 18.684794c0-3.58334 2.159003-5.724603 5.243293-5.724603 3.172783 0 4.978926 2.053865 4.978926 5.637204v13.109777h5.331415v-14.68295c0-5.375009-3.040229-8.87095-8.283522-8.87095-3.613025 0-5.772028 1.879069-7.270112 4.064032v-3.58334h-5.331045v23.073208h5.331045V18.684794M174.51591 13.632757h6.251857V9.073882h-6.251857V2.717758h-5.326601v6.356124h-2.950015v4.558875h2.950015v12.186225c0 5.084531 2.773547 6.79411 6.691732 6.79411 1.980735 0 3.47757-.437986 4.798306-1.183555V27.08984c-1.056589.526392-2.113178.789404-3.301841.789404-1.804637 0-2.861596-.832871-2.861596-2.893132V13.632757M181.675796 5.435515h5.448177V.905919h-5.448177zM182.583826 31.707172h4.540147V9.059192h-4.540147zM205.284564 25.190447v-.08981c0-4.247739-3.761549-5.812833-7.09142-6.886041-2.68054-.89434-5.145604-1.609812-5.145604-3.309057v-.089434c0-1.386227 1.16749-2.37 3.199787-2.37 1.902576 0 3.708134.56441 5.913393 1.950637l2.075537-3.845661c-2.42146-1.65453-5.005345-2.397808-7.859209-2.397808-4.540238 0-8.129189 2.727736-8.129189 7.199435v.089434c0 4.516417 3.761912 5.94736 7.134661 6.931134 2.680903.849623 5.102363 1.47566 5.102363 3.308682v.08981c0 1.56547-1.297211 2.548868-3.54571 2.548868-2.334616 0-5.015519-.983398-7.480583-2.906604l-2.334617 3.666793c2.853501 2.324908 6.442451 3.532267 9.685479 3.532267 4.756804 0 8.475112-2.459435 8.475112-7.422645M213.750897 13.750068H220v-4.54181h-6.249103v-6.33233h-5.325626v6.33233h-2.948695v4.54181h2.948695v12.140607c0 5.065498 2.772654 6.768676 6.689577 6.768676 1.980467 0 3.47682-.436345 4.797501-1.179123v-4.323454c-1.056618.524422-2.112868.78645-3.301148.78645-1.804425 0-2.860304-.829754-2.860304-2.882303V13.750068"/>
  </g>
</svg>
