<svg width="201" height="59" viewBox="0 0 201 59" fill="none" xmlns="http://www.w3.org/2000/svg">
<path d="M200.7 39.6C200.7 41.2 200.4 44.1 198.3 44.1C196.2 44.1 196.2 41.5 196.2 38.8V20.7H200.8V20.6H196.2V11.1H196.1C196 13.5 195.3 16.6 194.1 18.7C191.9 20.1 188.7 20.6 185.2 20.6H183.7V20.7H187.3V39.3C187.3 43.9 189.7 46.1 194 46.1C198.9 46.2 200.8 44 200.7 39.6Z" fill="black"/>
<path d="M168.4 24.1C168.4 22 170.3 20.4 173.7 20.4C177.4 20.4 181.6 22.6 183 28.9L182.5 20.4L179.8 21.5C178.1 20.9 175.7 20.3 173.6 20.3C167.7 20.3 161.4 22.5 161.4 28.4C161.4 37.8 178.7 37.2 178.7 42.4C178.7 45.2 175.6 46.1 172.5 46.1C169.1 46.1 162.8 44.2 161.4 35.9L161.9 46.1L165.2 45C168.3 45.9 170.7 46.2 172.6 46.2C179.4 46.2 185.4 43.6 185.4 37.5C185.4 28.1 168.4 29.5 168.4 24.1Z" fill="black"/>
<path d="M152.7 40.8C148 40.8 144.3 37.3 143.9 30.5H159.8C160.9 24.4 157 20.2 148.6 20.2C140.3 20.2 134.9 25.8 134.9 33.6C134.9 41.5 140.7 46.1 147.2 46.1C153.8 46.1 158 41.8 160.1 36.8C158.5 39.9 155.3 40.8 152.7 40.8ZM143.9 29.5C143.9 26.6 144.5 20.3 148.6 20.3C152.3 20.3 151.8 27.4 151.3 30.4H144C143.9 30.1 143.9 29.8 143.9 29.5Z" fill="black"/>
<path d="M137.2 45.3C137.2 51.2 131.9 55.8 122.3 55.8C115.3 55.8 109.4 55.1 109.4 50.5C109.4 48.3 111.1 46.8 113.1 46.8C114.9 46.8 116.4 47.9 116.5 50C115.5 50.4 115 51.5 115 52.4C115 54.3 116.5 55.5 122.2 55.5C128.6 55.5 131.7 53.4 131.7 50.4C131.7 48 129.8 46.5 125.8 46.5C124.3 46.5 121.7 46.7 119.3 46.7C114.6 46.7 108.9 46 108.9 41C108.9 37.7 111.7 35 116.3 33.9C113.2 32.7 111 30.6 111 27.5C111 22.3 117.1 19.9 123 19.9C124.3 19.9 125.7 20 127 20.3C126.9 19.7 126.9 19.1 126.9 18.5C126.9 14.9 129 12.1 132.5 12.1C135.5 12.1 137.2 14 137.2 16.3C137.2 18.5 135.4 20.5 133.1 20.7C132.9 18.6 131.5 17.5 130 17.5C128.6 17.5 127.4 18.4 127.4 20.4C131.6 21.3 135.1 23.6 135.1 27.5C135.1 32.7 129 35.1 123.1 35.1C121 35.1 118.8 34.8 116.9 34.2C115 34.7 114.5 35.5 114.5 36.2C114.5 37.8 117.2 37.9 119.9 37.9C120.6 37.9 124.1 37.7 126.1 37.7C131.1 37.5 137.2 38.9 137.2 45.3ZM119.6 27.3C119.6 32.8 121.1 34.5 123.1 34.5C125.1 34.5 126.6 32.8 126.6 27.3C126.6 21.8 125.1 20.1 123.1 20.1C121 20.1 119.6 21.8 119.6 27.3Z" fill="black"/>
<path d="M106.7 40.9C106.7 38.1 108.1 35.7 110.4 33.9V32.4C109.3 31 108.7 29.2 108.7 27.3C108.7 25.3 109.4 23.6 110.4 22.2V20.2H103.3V46.3H108.6C108.7 46.2 108.7 46.1 108.8 46.1C107.5 44.9 106.7 43.1 106.7 40.9Z" fill="#D43030"/>
<path d="M110.4 11.5H103.5V17.3H110.4V11.5Z" fill="#D43030" stroke="#D43030" stroke-width="0.4688" stroke-miterlimit="10"/>
<path d="M70.1 11.4H83.1C94.1 11.4 101.7 18.9 101.7 28.8V28.9C101.7 38.7 94.1 46.4 83.1 46.4H70.1V11.4ZM76.3 17V40.8H83.2C90.5 40.8 95.3 35.9 95.3 29V28.9C95.3 22.1 90.5 17 83.2 17H76.3Z" fill="#D43030"/>
<path d="M61.9 0.599998V58.6" stroke="black" stroke-width="0.4296" stroke-miterlimit="10"/>
<path d="M35.2 20.8C35.2 18.5 37.2 16.7 40.7 16.7C43.8 16.7 46.8 17.9 49.9 20.2L53.1 15.7C49.7 12.9 45.7 11.4 40.8 11.4C34.1 11.4 29.2 15.4 29.2 21.3C29.2 27.6 33.3 29.7 40.5 31.5C46.8 33 48.1 34.3 48.1 36.7C48.1 39.3 45.8 41 42.1 41C37.9 41 34.6 39.4 31.4 36.6L27.8 40.9C31.9 44.5 36.8 46.3 41.9 46.3C49 46.3 54 42.5 54 36.1C54 30.4 50.3 27.9 43.1 26.1C36.7 24.7 35.2 23.5 35.2 20.8Z" fill="black"/>
<path d="M17.1 17.6H28V12H0.100006V17.6H11V46.3H17.1V17.6Z" fill="black"/>
</svg>
