<?xml version="1.0" encoding="UTF-8" standalone="no"?>
<!DOCTYPE svg PUBLIC "-//W3C//DTD SVG 1.1//EN" "http://www.w3.org/Graphics/SVG/1.1/DTD/svg11.dtd">
<svg width="100%" height="100%" viewBox="0 0 166 58" version="1.1" xmlns="http://www.w3.org/2000/svg" xmlns:xlink="http://www.w3.org/1999/xlink" xml:space="preserve" xmlns:serif="http://www.serif.com/" style="fill-rule:evenodd;clip-rule:evenodd;stroke-miterlimit:10;">
    <g transform="matrix(1,0,0,1,-320.909,-84.6221)">
        <g>
            <g>
                <g transform="matrix(25.1513,0,0,25.1513,318.796,117.735)">
                    <path d="M0.084,-0L0.238,-0L0.238,-0.224L0.359,-0.224L0.509,-0L0.689,-0L0.518,-0.25C0.607,-0.283 0.668,-0.354 0.668,-0.467L0.668,-0.469C0.668,-0.535 0.647,-0.59 0.608,-0.629C0.562,-0.675 0.493,-0.7 0.404,-0.7L0.084,-0.7L0.084,-0ZM0.238,-0.36L0.238,-0.561L0.391,-0.561C0.466,-0.561 0.512,-0.527 0.512,-0.461L0.512,-0.459C0.512,-0.4 0.469,-0.36 0.394,-0.36L0.238,-0.36Z" style="fill:rgb(35,31,32);fill-rule:nonzero;"/>
                </g>
                <g transform="matrix(25.1513,0,0,25.1513,336.729,117.735)">
                    <path d="M0.322,0.012C0.419,0.012 0.491,-0.026 0.541,-0.088L0.454,-0.165C0.412,-0.126 0.375,-0.11 0.324,-0.11C0.256,-0.11 0.208,-0.146 0.193,-0.215L0.566,-0.215C0.567,-0.229 0.568,-0.243 0.568,-0.255C0.568,-0.407 0.486,-0.546 0.307,-0.546C0.151,-0.546 0.042,-0.42 0.042,-0.267L0.042,-0.265C0.042,-0.101 0.161,0.012 0.322,0.012ZM0.191,-0.31C0.203,-0.379 0.244,-0.424 0.307,-0.424C0.371,-0.424 0.411,-0.378 0.42,-0.31L0.191,-0.31Z" style="fill:rgb(35,31,32);fill-rule:nonzero;"/>
                </g>
                <g transform="matrix(25.1513,0,0,25.1513,352.147,117.735)">
                    <path d="M0.256,0.01C0.372,0.01 0.461,-0.044 0.461,-0.163L0.461,-0.165C0.461,-0.263 0.374,-0.299 0.299,-0.324C0.241,-0.344 0.19,-0.358 0.19,-0.388L0.19,-0.39C0.19,-0.411 0.209,-0.427 0.246,-0.427C0.285,-0.427 0.338,-0.408 0.391,-0.377L0.449,-0.482C0.391,-0.521 0.317,-0.544 0.249,-0.544C0.141,-0.544 0.053,-0.483 0.053,-0.374L0.053,-0.372C0.053,-0.268 0.138,-0.233 0.213,-0.211C0.272,-0.193 0.324,-0.182 0.324,-0.149L0.324,-0.147C0.324,-0.123 0.304,-0.107 0.26,-0.107C0.21,-0.107 0.149,-0.129 0.091,-0.171L0.026,-0.071C0.097,-0.015 0.181,0.01 0.256,0.01Z" style="fill:rgb(35,31,32);fill-rule:nonzero;"/>
                </g>
                <g transform="matrix(25.1513,0,0,25.1513,364.773,117.735)">
                    <path d="M0.322,0.012C0.419,0.012 0.491,-0.026 0.541,-0.088L0.454,-0.165C0.412,-0.126 0.375,-0.11 0.324,-0.11C0.256,-0.11 0.208,-0.146 0.193,-0.215L0.566,-0.215C0.567,-0.229 0.568,-0.243 0.568,-0.255C0.568,-0.407 0.486,-0.546 0.307,-0.546C0.151,-0.546 0.042,-0.42 0.042,-0.267L0.042,-0.265C0.042,-0.101 0.161,0.012 0.322,0.012ZM0.191,-0.31C0.203,-0.379 0.244,-0.424 0.307,-0.424C0.371,-0.424 0.411,-0.378 0.42,-0.31L0.191,-0.31Z" style="fill:rgb(35,31,32);fill-rule:nonzero;"/>
                </g>
                <g transform="matrix(25.1513,0,0,25.1513,380.191,117.735)">
                    <path d="M0.22,0.01C0.294,0.01 0.345,-0.017 0.382,-0.058L0.382,-0L0.529,-0L0.529,-0.311C0.529,-0.383 0.511,-0.442 0.471,-0.482C0.433,-0.52 0.373,-0.542 0.29,-0.542C0.199,-0.542 0.141,-0.525 0.082,-0.499L0.12,-0.383C0.169,-0.401 0.21,-0.412 0.268,-0.412C0.344,-0.412 0.383,-0.377 0.383,-0.314L0.383,-0.305C0.345,-0.318 0.306,-0.327 0.252,-0.327C0.125,-0.327 0.036,-0.273 0.036,-0.156L0.036,-0.154C0.036,-0.048 0.119,0.01 0.22,0.01ZM0.266,-0.095C0.217,-0.095 0.183,-0.119 0.183,-0.16L0.183,-0.162C0.183,-0.21 0.223,-0.236 0.288,-0.236C0.325,-0.236 0.359,-0.228 0.385,-0.216L0.385,-0.189C0.385,-0.134 0.337,-0.095 0.266,-0.095Z" style="fill:rgb(35,31,32);fill-rule:nonzero;"/>
                </g>
                <g transform="matrix(25.1513,0,0,25.1513,395.08,117.735)">
                    <path d="M0.068,-0L0.22,-0L0.22,-0.198C0.22,-0.326 0.282,-0.387 0.383,-0.387L0.391,-0.387L0.391,-0.546C0.301,-0.55 0.251,-0.502 0.22,-0.428L0.22,-0.536L0.068,-0.536L0.068,-0Z" style="fill:rgb(35,31,32);fill-rule:nonzero;"/>
                </g>
                <g transform="matrix(25.1513,0,0,25.1513,405.216,117.735)">
                    <path d="M0.321,0.012C0.428,0.012 0.488,-0.029 0.54,-0.086L0.451,-0.176C0.414,-0.141 0.379,-0.119 0.328,-0.119C0.245,-0.119 0.192,-0.185 0.192,-0.267L0.192,-0.269C0.192,-0.348 0.246,-0.415 0.322,-0.415C0.376,-0.415 0.41,-0.392 0.444,-0.356L0.537,-0.456C0.487,-0.512 0.424,-0.546 0.323,-0.546C0.159,-0.546 0.042,-0.42 0.042,-0.267L0.042,-0.265C0.042,-0.112 0.16,0.012 0.321,0.012Z" style="fill:rgb(35,31,32);fill-rule:nonzero;"/>
                </g>
                <g transform="matrix(25.1513,0,0,25.1513,419.578,117.735)">
                    <path d="M0.068,-0L0.22,-0L0.22,-0.299C0.22,-0.371 0.257,-0.408 0.315,-0.408C0.373,-0.408 0.407,-0.371 0.407,-0.299L0.407,-0L0.559,-0L0.559,-0.347C0.559,-0.47 0.492,-0.546 0.377,-0.546C0.3,-0.546 0.255,-0.505 0.22,-0.46L0.22,-0.73L0.068,-0.73L0.068,-0Z" style="fill:rgb(35,31,32);fill-rule:nonzero;"/>
                </g>
                <g transform="matrix(31.0775,0,0,31.0778,443.821,120.219)">
                    <path d="M0.275,-0.11L0.35,-0.11L0.35,-0.316L0.557,-0.316L0.557,-0.388L0.35,-0.388L0.35,-0.594L0.275,-0.594L0.275,-0.388L0.068,-0.388L0.068,-0.316L0.275,-0.316L0.275,-0.11Z" style="fill:rgb(237,28,36);fill-rule:nonzero;"/>
                </g>
                <g transform="matrix(25.1513,0,0,25.1513,336.78,141.076)">
                    <path d="M0.104,-0L0.156,-0L0.156,-0.29L0.385,-0.29L0.608,-0L0.674,-0L0.443,-0.299C0.561,-0.315 0.648,-0.382 0.648,-0.499L0.648,-0.501C0.648,-0.551 0.628,-0.598 0.595,-0.631C0.553,-0.673 0.484,-0.7 0.398,-0.7L0.104,-0.7L0.104,-0ZM0.156,-0.337L0.156,-0.652L0.395,-0.652C0.522,-0.652 0.596,-0.593 0.596,-0.499L0.596,-0.497C0.596,-0.396 0.509,-0.337 0.392,-0.337L0.156,-0.337Z" style="fill:rgb(35,31,32);fill-rule:nonzero;"/>
                </g>
                <g transform="matrix(25.1513,0,0,25.1513,354.712,141.076)">
                    <path d="M0.308,0.012C0.406,0.012 0.467,-0.028 0.519,-0.084L0.485,-0.114C0.443,-0.069 0.389,-0.034 0.31,-0.034C0.21,-0.034 0.119,-0.108 0.11,-0.235L0.533,-0.235C0.534,-0.243 0.534,-0.246 0.534,-0.255C0.534,-0.406 0.443,-0.522 0.3,-0.522C0.162,-0.522 0.058,-0.404 0.058,-0.256L0.058,-0.254C0.058,-0.095 0.174,0.012 0.308,0.012ZM0.11,-0.279C0.119,-0.392 0.197,-0.477 0.298,-0.477C0.415,-0.477 0.474,-0.382 0.481,-0.279L0.11,-0.279Z" style="fill:rgb(35,31,32);fill-rule:nonzero;"/>
                </g>
                <g transform="matrix(25.1513,0,0,25.1513,369.401,141.076)">
                    <path d="M0.258,0.01C0.356,0.01 0.434,-0.048 0.434,-0.139L0.434,-0.141C0.434,-0.231 0.348,-0.261 0.266,-0.284C0.193,-0.305 0.124,-0.326 0.124,-0.383L0.124,-0.385C0.124,-0.436 0.17,-0.474 0.24,-0.474C0.294,-0.474 0.35,-0.454 0.397,-0.423L0.423,-0.464C0.372,-0.498 0.303,-0.52 0.242,-0.52C0.143,-0.52 0.074,-0.461 0.074,-0.379L0.074,-0.377C0.074,-0.286 0.166,-0.261 0.249,-0.237C0.32,-0.217 0.384,-0.195 0.384,-0.135L0.384,-0.133C0.384,-0.074 0.33,-0.036 0.261,-0.036C0.196,-0.036 0.134,-0.06 0.078,-0.103L0.049,-0.064C0.103,-0.02 0.184,0.01 0.258,0.01Z" style="fill:rgb(35,31,32);fill-rule:nonzero;"/>
                </g>
                <g transform="matrix(25.1513,0,0,25.1513,381.901,141.076)">
                    <path d="M0.319,0.012C0.471,0.012 0.582,-0.112 0.582,-0.255L0.582,-0.257C0.582,-0.4 0.472,-0.522 0.321,-0.522C0.169,-0.522 0.058,-0.398 0.058,-0.255L0.058,-0.253C0.058,-0.11 0.168,0.012 0.319,0.012ZM0.321,-0.034C0.203,-0.034 0.111,-0.132 0.111,-0.255L0.111,-0.257C0.111,-0.377 0.198,-0.476 0.319,-0.476C0.437,-0.476 0.529,-0.378 0.529,-0.255L0.529,-0.253C0.529,-0.133 0.442,-0.034 0.321,-0.034Z" style="fill:rgb(35,31,32);fill-rule:nonzero;"/>
                </g>
                <g transform="matrix(25.1513,0,0,25.1513,397.998,141.076)">
                    <path d="M0.287,0.012C0.38,0.012 0.437,-0.035 0.471,-0.095L0.471,-0L0.52,-0L0.52,-0.51L0.471,-0.51L0.471,-0.215C0.471,-0.109 0.394,-0.033 0.294,-0.033C0.191,-0.033 0.132,-0.102 0.132,-0.207L0.132,-0.51L0.083,-0.51L0.083,-0.198C0.083,-0.076 0.158,0.012 0.287,0.012Z" style="fill:rgb(35,31,32);fill-rule:nonzero;"/>
                </g>
                <g transform="matrix(25.1513,0,0,25.1513,413.416,141.076)">
                    <path d="M0.093,-0L0.142,-0L0.142,-0.209C0.142,-0.375 0.245,-0.464 0.363,-0.464L0.368,-0.464L0.368,-0.518C0.267,-0.522 0.182,-0.456 0.142,-0.365L0.142,-0.51L0.093,-0.51L0.093,-0Z" style="fill:rgb(35,31,32);fill-rule:nonzero;"/>
                </g>
                <g transform="matrix(25.1513,0,0,25.1513,422.847,141.076)">
                    <path d="M0.318,0.012C0.412,0.012 0.474,-0.03 0.526,-0.089L0.492,-0.119C0.449,-0.071 0.393,-0.034 0.321,-0.034C0.204,-0.034 0.111,-0.132 0.111,-0.255L0.111,-0.257C0.111,-0.379 0.201,-0.476 0.317,-0.476C0.393,-0.476 0.443,-0.437 0.487,-0.392L0.522,-0.428C0.474,-0.478 0.414,-0.522 0.318,-0.522C0.172,-0.522 0.058,-0.398 0.058,-0.255L0.058,-0.253C0.058,-0.11 0.171,0.012 0.318,0.012Z" style="fill:rgb(35,31,32);fill-rule:nonzero;"/>
                </g>
                <g transform="matrix(25.1513,0,0,25.1513,436.831,141.076)">
                    <path d="M0.308,0.012C0.406,0.012 0.467,-0.028 0.519,-0.084L0.485,-0.114C0.443,-0.069 0.389,-0.034 0.31,-0.034C0.21,-0.034 0.119,-0.108 0.11,-0.235L0.533,-0.235C0.534,-0.243 0.534,-0.246 0.534,-0.255C0.534,-0.406 0.443,-0.522 0.3,-0.522C0.162,-0.522 0.058,-0.404 0.058,-0.256L0.058,-0.254C0.058,-0.095 0.174,0.012 0.308,0.012ZM0.11,-0.279C0.119,-0.392 0.197,-0.477 0.298,-0.477C0.415,-0.477 0.474,-0.382 0.481,-0.279L0.11,-0.279Z" style="fill:rgb(35,31,32);fill-rule:nonzero;"/>
                </g>
                <g transform="matrix(25.1513,0,0,25.1513,451.52,141.076)">
                    <path d="M0.258,0.01C0.356,0.01 0.434,-0.048 0.434,-0.139L0.434,-0.141C0.434,-0.231 0.348,-0.261 0.266,-0.284C0.193,-0.305 0.124,-0.326 0.124,-0.383L0.124,-0.385C0.124,-0.436 0.17,-0.474 0.24,-0.474C0.294,-0.474 0.35,-0.454 0.397,-0.423L0.423,-0.464C0.372,-0.498 0.303,-0.52 0.242,-0.52C0.143,-0.52 0.074,-0.461 0.074,-0.379L0.074,-0.377C0.074,-0.286 0.166,-0.261 0.249,-0.237C0.32,-0.217 0.384,-0.195 0.384,-0.135L0.384,-0.133C0.384,-0.074 0.33,-0.036 0.261,-0.036C0.196,-0.036 0.134,-0.06 0.078,-0.103L0.049,-0.064C0.103,-0.02 0.184,0.01 0.258,0.01Z" style="fill:rgb(35,31,32);fill-rule:nonzero;"/>
                </g>
            </g>
            <g transform="matrix(-0.906358,0.42251,0.42251,0.906358,482.316,125.154)">
                <path d="M13.686,-39.45C6.479,-36.605 2.941,-28.455 5.787,-21.247C7.272,-17.487 10.201,-14.725 13.686,-13.349L13.995,-13.233L8.94,3.456" style="fill:none;fill-rule:nonzero;stroke:rgb(35,31,32);stroke-width:2.1px;"/>
            </g>
            <g transform="matrix(1,0,0,1,450.06,99.9209)">
                <path d="M0,22.709C-5.479,21.067 -9.613,16.15 -9.977,10.109C-10.209,6.261 -8.867,2.682 -6.508,0" style="fill:none;fill-rule:nonzero;stroke:rgb(35,31,32);stroke-width:2.1px;"/>
            </g>
        </g>
    </g>
</svg>
